<svg width="60" height="61" viewBox="0 0 60 61" fill="none" xmlns="http://www.w3.org/2000/svg">
<ellipse cx="30" cy="30.5" rx="30" ry="30.5" fill="#FF2E2E"/>
<path d="M46.2084 28.2116H45.4471V23.6373C45.4471 21.7669 43.9245 20.2509 42.0607 20.2509H41.3585L41.3651 18.5512C41.3651 17.2911 40.3413 16.2673 39.0812 16.2673H18.776C17.26 16.2673 16.0197 17.488 16 19.004C16 19.0171 16 19.0303 16 19.0434V41.4486C16 42.7087 17.0238 43.7325 18.2838 43.7325H42.0673C43.9377 43.7325 45.4536 42.2099 45.4536 40.3461V35.7653H46.2149C47.1993 35.7653 48 34.9646 48 33.9802V29.9966C47.9934 29.0122 47.1928 28.2116 46.2084 28.2116ZM18.776 17.8424H39.0812C39.4684 17.8424 39.79 18.1574 39.79 18.5446L39.7834 20.2509H18.776C18.1132 20.2509 17.5751 19.7128 17.5751 19.0499C17.5751 18.3871 18.1132 17.8424 18.776 17.8424ZM43.872 40.3395C43.872 41.3371 43.0582 42.1508 42.0607 42.1508H18.2773C17.8901 42.1508 17.5685 41.8358 17.5685 41.4421V21.5504C17.936 21.7275 18.3429 21.826 18.776 21.826H42.0607C43.0582 21.826 43.872 22.6398 43.872 23.6373V28.2116H38.4971C37.5127 28.2116 36.7121 29.0122 36.7121 29.9966V33.9802C36.7121 34.9646 37.5127 35.7653 38.4971 35.7653H43.872V40.3395ZM46.4184 33.9802C46.4184 34.0983 46.3265 34.1902 46.2084 34.1902H38.5037C38.3856 34.1902 38.2937 34.0983 38.2937 33.9802V29.9966C38.2937 29.8851 38.3856 29.7866 38.5037 29.7866H46.2084C46.3199 29.7866 46.4184 29.8785 46.4184 29.9966V33.9802Z" fill="white"/>
<circle cx="41" cy="32" r="1" fill="white"/>
<path d="M24 40C24.5523 40 25 39.5523 25 39C25 38.4477 24.5523 38 24 38V40ZM17 40H24V38H17V40Z" fill="white"/>
</svg>
