<svg width="60" height="61" viewBox="0 0 60 61" fill="none" xmlns="http://www.w3.org/2000/svg">
<ellipse cx="30" cy="30.5" rx="30" ry="30.5" fill="#FF2E2E"/>
<path d="M20.1 37.1499C17.9492 37.1499 16.2 38.899 16.2 41.0499C16.2 43.2008 17.9492 44.9499 20.1 44.9499C22.2509 44.9499 24.0001 43.2008 24.0001 41.0499C24.0001 38.899 22.2508 37.1499 20.1 37.1499ZM20.1 43.6499C18.6661 43.6499 17.5001 42.4838 17.5001 41.0499C17.5001 39.616 18.6662 38.4499 20.1 38.4499C21.5339 38.4499 22.7 39.616 22.7 41.0499C22.7 42.4838 21.5339 43.6499 20.1 43.6499Z" fill="white"/>
<path d="M42.2 37.1499C40.0491 37.1499 38.3 38.899 38.3 41.0499C38.3 43.2008 40.0491 44.9499 42.2 44.9499C44.3509 44.9499 46.1 43.2008 46.1 41.0499C46.1 38.899 44.3509 37.1499 42.2 37.1499ZM42.2 43.6499C40.7661 43.6499 39.6 42.4838 39.6 41.0499C39.6 39.616 40.7661 38.4499 42.2 38.4499C43.6339 38.4499 44.8 39.616 44.8 41.0499C44.8 42.4838 43.6339 43.6499 42.2 43.6499Z" fill="white"/>
<path d="M49.8967 33.5483L44.0467 24.4483C43.9271 24.2623 43.7211 24.1499 43.5 24.1499H36.3501C35.9906 24.1499 35.7001 24.4411 35.7001 24.7999V41.0499C35.7001 41.4093 35.9906 41.6998 36.3501 41.6998H38.95V40.3998H37V25.4499H43.1451L48.7001 34.091V40.4H45.45V41.6999H49.35C49.7095 41.6999 50 41.4094 50 41.0499V33.8999C50.0001 33.7758 49.9644 33.6529 49.8967 33.5483Z" fill="white"/>
<path d="M39.6 32.6V28.05H44.8V26.75H38.95C38.5906 26.75 38.3001 27.0412 38.3001 27.4V33.25C38.3001 33.6094 38.5906 33.9 38.95 33.9H48.7V32.5999H39.6V32.6Z" fill="white"/>
<path d="M36.35 19.6001H11.65C11.2912 19.6001 11 19.8913 11 20.2501V41.0501C11 41.4096 11.2912 41.7001 11.65 41.7001H16.85V40.4001H12.3V20.9H35.7001V40.4001H23.35V41.7001H36.35C36.7095 41.7001 37 41.4096 37 41.0501V20.2501C37 19.8913 36.7095 19.6001 36.35 19.6001Z" fill="white"/>
<path d="M15.55 37.8005H11.65V39.1006H15.55V37.8005Z" fill="white"/>
<path d="M35.7001 37.8005H24.65V39.1006H35.7001V37.8005Z" fill="white"/>
<path d="M49.35 37.8005H46.75V39.1006H49.35V37.8005Z" fill="white"/>
<path d="M36.35 22.2004H13.6V23.5005H36.35V22.2004Z" fill="white"/>
<path d="M20.75 40.3999H19.45V41.6999H20.75V40.3999Z" fill="white"/>
<path d="M42.8501 40.3999H41.55V41.6999H42.8501V40.3999Z" fill="white"/>
<path d="M22.7 17H13.6V18.3H22.7V17Z" fill="white"/>
<path d="M12.3 17H11V18.3H12.3V17Z" fill="white"/>
</svg>
